# xmcd
#
# Track frame offsets: 
#        150
#        4564
#        21886
#        35511
#        52628
#        67690
#        82650
#        97913
#        116880
#        138150
#        157044
#        176408
#        191907
#        220270
#
# Disc length: 3522 seconds
#
# Revision: 1
# Processed by: cddbd v1.5.2PL0 Copyright (c) Steve Scherf et al.
# Submitted via: ExactAudioCopy v0.95b4
#
DISCID=a60dc00e
DTITLE=Crea - Mystory
DYEAR=2004
DGENRE=Neo-Soul
TTITLE0=Intro
TTITLE1=Not the words
TTITLE2=Changes
TTITLE3=Shouldn't bring it up
TTITLE4=Nothing I won't do
TTITLE5=Call her
TTITLE6=Foreal
TTITLE7=Broken pieces
TTITLE8=I remember (you live on)
TTITLE9=U lied
TTITLE10=Breathe
TTITLE11=Carried away
TTITLE12=With my heart
TTITLE13=DATA
EXTD=
EXTT0=
EXTT1=
EXTT2=
EXTT3=
EXTT4=
EXTT5=
EXTT6=
EXTT7=
EXTT8=
EXTT9=
EXTT10=
EXTT11=
EXTT12=
EXTT13=
PLAYORDER=
